<?xml version="1.0" ?><!DOCTYPE svg  PUBLIC '-//W3C//DTD SVG 1.1//EN'  'http://www.w3.org/Graphics/SVG/1.1/DTD/svg11.dtd'><svg enable-background="new 0 0 32 32" height="32px" id="Layer_1" version="1.1" viewBox="0 0 32 32" width="32px" xml:space="preserve" xmlns="http://www.w3.org/2000/svg" xmlns:xlink="http://www.w3.org/1999/xlink"><path d="M8.211,25.776c-0.322-0.456-0.349-0.429-0.349-0.67c0-0.241,0.931-2.899,1.663-1.207  c0.282,0.652,0.751,1.716,1.287,2.548c0.181,0.281,0.231,0.486,0.247,0.644h7.035c0.013-0.05,0.026-0.104,0.039-0.161  c0.26-1.1-0.134-1.394-0.456-2.387c-0.322-0.992,0.08-0.375,0.67-1.555c0.59-1.18,0.188-1.287,0.134-2.628s-0.107-1.394,0.241-1.743  c0.349-0.349,0.751-0.751,1.234-1.341s0.027-1.18,0.751-1.448s0.295,0.134,0.697,1.394c0.402,1.26,0.08,1.258,0.215,1.984  c0.134,0.726,0.67,1.555,1.368,3.164c0.697,1.609,1.609,1.421,1.904,2.226c0.295,0.805,0.339,1.589,0.419,1.964  c0.045,0.212-0.003,0.398-0.011,0.53h3.103c0.306-0.515-0.336-1.549-0.401-2.199c-0.08-0.805-0.268-1.26-0.805-1.797  c-0.536-0.536-0.161-0.483-0.375-1.582c-0.215-1.1-1.797-3.325-2.038-4.076c-0.241-0.751-0.617-2.414-0.885-2.977  c-0.268-0.563-0.339-0.335,0.161-1.073c0.563-0.831-0.134-0.885-0.268-1.314c-0.134-0.429,0.322-0.912,0.697-1.234  c0.375-0.322-0.188-0.697-0.188-0.697c-0.536-2.548-2.253-4.291-3.138-4.505c-0.885-0.215-1.126,1.153-1.743,1.394  c-0.617,0.241-1.314,0.778-1.958,0.992c-0.644,0.215-0.965,0.912-1.582,1.368c-0.617,0.456-0.402,0.456-0.697,0.644  c-0.295,0.188-2.601,1.877-2.896,2.011c-0.295,0.134-0.677,0.145-1.824,0.268c-1.361,0.146-1.55,0.197-2.95,1.153  c-1.763,1.205-2.386,2.713-2.467,3.111c-0.638,3.111,1.153,4.049,0.912,4.934c-0.334,1.226-1.403,5.415-1.403,5.415  c-0.051,0.058-0.039,0.113-0.071,0.163h4.248C8.806,26.696,8.473,26.147,8.211,25.776z M12.153,19.903c0,0,1.153,0.054,1.609-0.241  c0.456-0.295,0.617-0.451,0.805-0.641c0.188-0.19,0.268-0.807,0.402-0.592c0.134,0.215,0.161,1.126-0.375,1.984  c-0.536,0.858-0.359,0.463-0.617,1.797c-0.224,1.159,0.939,2.145,0.965,2.414c0.027,0.268,0.08,0.322-0.215,0.241  s-0.697-0.054-0.885-0.805c-0.188-0.751-0.67-1.904-1.019-2.306c-0.349-0.402-0.483-0.112-0.67-0.67  C11.939,20.447,12.153,19.903,12.153,19.903z" fill="#ffd738"/></svg>